# xmcd
#
# Track frame offsets:
# 150
# 15727
# 32713
# 47018
# 67634
# 81060
# 96609
# 108944
# 127491
# 138199
# 158240
# 175804
# 188361
# 202146
# 217862
# 230064
#
# Disc length: 3224 seconds
#
#
# Revision: 0
# Processed by: cddbd v1.5.1PL0 Copyright (c) Steve Scherf et al.
# Submitted via: FreeRIP 2.91 
#
DISCID=d90c9610
DTITLE=Various Artist - 16 Great Bluegrass Gospel Classics Vol. 1
DYEAR=1900
DGENRE=Bluegrass
TTITLE0=He Aint' Never Done Me Nothin' But Good
TTITLE1=Just Another Hill
TTITLE2=Family On Both Sides
TTITLE3=I Just Want To Thank You Lord
TTITLE4=His Life Is An Open Book
TTITLE5=Only Thing That Matters
TTITLE6=Walk Over God's Heaven
TTITLE7=Rose In A Bible
TTITLE8=I Shall Not Be Moved
TTITLE9=I've Come To Take You Home
TTITLE10=Bought By The Blood
TTITLE11=Until Then
TTITLE12=You'll Never Run Out Of The Blood
TTITLE13=Angels Gathering Flowers
TTITLE14=There's Nothing My God Can't Do
TTITLE15=Will The Circle Be Broken
EXTD=
EXTT0=
EXTT1=
EXTT2=
EXTT3=
EXTT4=
EXTT5=
EXTT6=
EXTT7=
EXTT8=
EXTT9=
EXTT10=
EXTT11=
EXTT12=
EXTT13=
EXTT14=
EXTT15=
PLAYORDER=
